<svg width="198" height="23" fill="none" xmlns="http://www.w3.org/2000/svg"><g clip-path="url(#clip0_2_662)" fill="#fff"><path d="M49.684 6.466h6.17v15.883h6.861V6.466h6.17V.651H49.639v5.815h.046zM82.1 8.94l-2.624-.651c-1.427-.347-2.118-.825-2.118-1.432 0-.868 1.06-1.346 2.993-1.346 2.395 0 4.927.868 7.137 2.43V1.78A17.754 17.754 0 0079.66 0c-5.663 0-9.209 2.69-9.209 6.987 0 3.298 1.98 5.424 6.032 6.466l3.316.824c1.335.304 1.98.825 1.98 1.563 0 1.084-1.151 1.649-3.27 1.649-2.763 0-5.617-.998-7.92-2.778v6.163C73.26 22.306 76.115 23 79.2 23c5.802 0 9.44-2.82 9.44-7.334.046-3.385-2.165-5.642-6.54-6.726zm-41.349 4.817c0 1.822-1.52 3.254-3.453 3.254-1.934 0-3.454-1.432-3.454-3.254V.65h-6.86v12.628c0 5.685 4.282 9.72 10.314 9.72s10.314-4.035 10.314-9.72V.651h-6.86v13.106zM12.386 0C5.433 0 0 5.034 0 11.5S5.433 23 12.386 23c6.954 0 12.387-5.034 12.387-11.5S19.34 0 12.387 0zm0 17.011c-2.993 0-5.34-2.43-5.34-5.511s2.347-5.511 5.34-5.511c2.994 0 5.342 2.43 5.342 5.511s-2.349 5.511-5.342 5.511zm176.313-.477V.65h-6.861v21.698H198v-5.815h-9.301zM167.241 0c-2.855 0-4.881.65-7.367 2.343-1.52.912-2.257 1.215-2.901 1.215-.783 0-1.52-.303-2.901-1.215C151.585.651 149.513 0 146.704 0c-6.953 0-12.386 5.034-12.386 11.5S139.659 23 146.612 23c2.809 0 4.835-.65 7.368-2.343 1.381-.955 2.118-1.215 2.9-1.215.875 0 1.566.303 2.901 1.215 2.487 1.692 4.559 2.343 7.368 2.343 6.953 0 12.386-5.034 12.386-11.5S174.148 0 167.241 0zm-.046 16.838c-1.612 0-4.006-.912-5.802-2.17-1.704-1.215-3.039-1.736-4.466-1.736-1.428 0-2.763.52-4.467 1.736-1.796 1.258-4.19 2.126-5.802 2.126-2.993 0-5.341-2.343-5.341-5.337a5.312 5.312 0 015.341-5.338c1.612 0 4.006.868 5.802 2.126 1.75 1.215 3.131 1.736 4.467 1.736 1.427 0 2.762-.52 4.466-1.736 1.796-1.258 4.19-2.17 5.802-2.17 2.993 0 5.341 2.344 5.341 5.338 0 2.995-2.348 5.425-5.341 5.425zm-42.087-8.419h-6.861V.65h-6.86v21.698h6.86v-8.115h6.861v8.115h6.861V.651h-6.861v7.768zM90.067 11.5c0 6.726 5.111 11.5 12.386 11.5 1.888 0 4.283-.39 6.171-.998V15.84c-1.566.78-3.27 1.171-5.157 1.171-3.73 0-6.355-2.256-6.355-5.511 0-3.255 2.625-5.511 6.355-5.511 1.795 0 3.499.434 5.157 1.215v-6.12C106.828.435 104.48 0 102.453 0c-7.275 0-12.386 4.774-12.386 11.5z"/></g><defs><clipPath id="clip0_2_662"><path fill="#fff" d="M0 0h198v23H0z"/></clipPath></defs></svg>